<mxfile host="www.draw.io" modified="2020-02-20T01:59:03.792Z" agent="Mozilla/5.0 (Windows NT 6.1; WOW64) AppleWebKit/537.36 (KHTML, like Gecko) Chrome/74.0.3729.169 Safari/537.36" etag="Y-LOL_-8IkpnSybdXBa7" version="12.7.2" type="github">
  <diagram id="uWtnu-EviHcIaGkKLtn0" name="Page-1">
    <mxGraphModel dx="356" dy="476" grid="1" gridSize="10" guides="1" tooltips="1" connect="1" arrows="1" fold="1" page="1" pageScale="1" pageWidth="827" pageHeight="1169" math="0" shadow="0">
      <root>
        <mxCell id="0" />
        <mxCell id="1" parent="0" />
        <mxCell id="c3uNdeiUFlgglwjwr6Ss-1" value="CreatMainWin" style="rounded=1;whiteSpace=wrap;html=1;" parent="1" vertex="1">
          <mxGeometry x="120" y="40" width="120" height="60" as="geometry" />
        </mxCell>
        <mxCell id="c3uNdeiUFlgglwjwr6Ss-2" value="ReadRefcatalog" style="rounded=1;whiteSpace=wrap;html=1;" parent="1" vertex="1">
          <mxGeometry x="120" y="290" width="120" height="60" as="geometry" />
        </mxCell>
        <mxCell id="y_d4O36AlwkD-l58EEKC-2" value="CreatFileInWin(ReadFormFile)" style="rounded=0;whiteSpace=wrap;html=1;" vertex="1" parent="1">
          <mxGeometry x="294" y="30" width="206" height="30" as="geometry" />
        </mxCell>
        <mxCell id="y_d4O36AlwkD-l58EEKC-3" value="" style="endArrow=classic;html=1;" edge="1" parent="1">
          <mxGeometry width="50" height="50" relative="1" as="geometry">
            <mxPoint x="240" y="80" as="sourcePoint" />
            <mxPoint x="290" y="30" as="targetPoint" />
            <Array as="points">
              <mxPoint x="260" y="60" />
            </Array>
          </mxGeometry>
        </mxCell>
        <mxCell id="y_d4O36AlwkD-l58EEKC-4" value="Caltime" style="rounded=0;whiteSpace=wrap;html=1;" vertex="1" parent="1">
          <mxGeometry x="300" y="80" width="120" height="60" as="geometry" />
        </mxCell>
      </root>
    </mxGraphModel>
  </diagram>
</mxfile>
